<svg width="366" height="266" viewBox="0 0 366 266" fill="none" xmlns="http://www.w3.org/2000/svg">
    <ellipse cx="132" cy="133.5" rx="132" ry="132.5" fill="#FF006F" />
    <g style="mix-blend-mode:color-dodge">
        <ellipse cx="234" cy="132.5" rx="132" ry="132.5" fill="white" />
    </g>
    <path fill-rule="evenodd" clip-rule="evenodd" d="M181.812 10.7587C230.022 30.4922 264 78.0131 264 133.5C264 188.071 231.135 234.937 184.188 255.241C135.978 235.508 102 187.987 102 132.5C102 77.9292 134.865 31.0635 181.812 10.7587Z" fill="#FF00FF" />
    <circle cx="183" cy="132" r="81" fill="#8439ED" />
    <path d="M140.816 143.888C140.816 147.429 139.963 150.011 138.256 151.632C136.549 153.211 133.776 154 129.936 154H121.744V149.2H130.512C132.133 149.2 133.328 148.837 134.096 148.112C134.864 147.344 135.248 146.149 135.248 144.528V137.936C135.248 136.528 134.821 135.419 133.968 134.608C133.115 133.755 131.984 133.328 130.576 133.328H123.728V128.528H129.936C131.259 128.528 132.368 128.101 133.264 127.248C134.16 126.395 134.608 125.264 134.608 123.856V118.608C134.608 116.987 134.224 115.813 133.456 115.088C132.731 114.363 131.557 114 129.936 114H121.744V109.2H129.168C132.795 109.2 135.525 110.011 137.36 111.632C139.237 113.211 140.176 115.728 140.176 119.184V123.216C140.176 126.501 139.003 128.976 136.656 130.64C139.429 132.176 140.816 134.8 140.816 138.512V143.888ZM177.235 143.12C177.235 146.661 176.253 149.371 174.291 151.248C172.371 153.083 169.768 154 166.483 154H165.203C161.917 154 159.293 153.083 157.331 151.248C155.411 149.371 154.451 146.661 154.451 143.12V120.08C154.451 116.496 155.411 113.787 157.331 111.952C159.251 110.117 161.875 109.2 165.203 109.2H166.483C169.811 109.2 172.435 110.117 174.355 111.952C176.275 113.787 177.235 116.496 177.235 120.08V143.12ZM171.795 118.864C171.795 117.541 171.283 116.411 170.259 115.472C169.277 114.491 168.019 114 166.483 114H165.203C163.667 114 162.387 114.491 161.363 115.472C160.381 116.411 159.891 117.541 159.891 118.864V136.208L171.795 118.864ZM159.891 144.336C159.891 145.659 160.381 146.811 161.363 147.792C162.387 148.731 163.667 149.2 165.203 149.2H166.483C168.019 149.2 169.277 148.731 170.259 147.792C171.283 146.811 171.795 145.659 171.795 144.336V127.056L159.891 144.336ZM200.277 135.824L196.245 154H188.565L186.389 109.2H191.125L193.045 149.2L198.357 128.08H202.325L207.765 149.2L209.749 109.2H214.165L211.989 154H203.925L200.277 135.824ZM244.504 143.888C244.504 147.429 243.65 150.011 241.944 151.632C240.237 153.211 237.464 154 233.624 154H225.432V149.2H234.2C235.821 149.2 237.016 148.837 237.784 148.112C238.552 147.344 238.936 146.149 238.936 144.528V137.936C238.936 136.528 238.509 135.419 237.656 134.608C236.802 133.755 235.672 133.328 234.264 133.328H227.416V128.528H233.624C234.946 128.528 236.056 128.101 236.952 127.248C237.848 126.395 238.296 125.264 238.296 123.856V118.608C238.296 116.987 237.912 115.813 237.144 115.088C236.418 114.363 235.245 114 233.624 114H225.432V109.2H232.856C236.482 109.2 239.213 110.011 241.048 111.632C242.925 113.211 243.864 115.728 243.864 119.184V123.216C243.864 126.501 242.69 128.976 240.344 130.64C243.117 132.176 244.504 134.8 244.504 138.512V143.888Z" fill="white" />
</svg>
 